<svg width="22" height="33" viewBox="0 0 22 33" fill="none" xmlns="http://www.w3.org/2000/svg">
<path d="M20.3277 9.9H13.3646L14.7111 1.92225C14.7511 1.68572 14.7385 1.44341 14.6741 1.21219C14.6097 0.980968 14.495 0.766398 14.338 0.58342C14.1811 0.400443 13.9856 0.253457 13.7653 0.152699C13.5449 0.05194 13.305 -0.000169013 13.0622 4.11819e-07H4.45508C4.05988 0.000115001 3.67751 0.1386 3.37592 0.390849C3.07433 0.643098 2.87305 0.992776 2.80784 1.37775L0.0228983 17.8778C-0.0171429 18.1141 -0.00455902 18.3563 0.0597738 18.5874C0.124107 18.8185 0.238644 19.033 0.395419 19.216C0.552194 19.3989 0.747442 19.5459 0.967581 19.6468C1.18772 19.7476 1.42747 19.7999 1.67014 19.8H8.35266V33L21.7344 12.4427C21.8968 12.1933 21.9882 11.9053 21.9989 11.609C22.0097 11.3127 21.9394 11.019 21.7954 10.7588C21.6515 10.4987 21.4392 10.2816 21.1809 10.1304C20.9227 9.97932 20.6279 9.89971 20.3277 9.9Z" fill="#444444"/>
</svg>
