<svg width="41" height="41" viewBox="0 0 41 41" fill="none" xmlns="http://www.w3.org/2000/svg">
<path d="M28.7289 16.8634L20.9458 9.08029L13.1442 16.8634L8.60402 12.3418L20.9458 0L33.269 12.3232L28.7289 16.8634Z" fill="#5A5A5A"/>
<path d="M41.0001 20.0699L36.4663 24.6037L31.9325 20.0699L36.4663 15.5361L41.0001 20.0699Z" fill="#B9B9B9"/>
<path d="M28.7289 23.2752L20.9458 31.0583L13.1442 23.2752L8.60402 27.7968L20.9458 40.1386L33.269 27.7968L28.7289 23.2752Z" fill="#5A5A5A"/>
<path d="M5.41593 15.5401L9.94971 20.0739L5.41593 24.6077L0.88215 20.0739L5.41593 15.5401Z" fill="#B9B9B9"/>
<path d="M16.35 20.0693H16.3315L20.9458 15.4736L24.337 18.8648L24.7261 19.2539L25.5415 20.0693L20.9458 24.665L16.3315 20.0693H16.35Z" fill="#B9B9B9"/>
</svg>
