<svg width="35" height="26" viewBox="0 0 35 26" fill="none" xmlns="http://www.w3.org/2000/svg">
<path d="M29.6288 2.15634C27.3976 1.15974 25.006 0.423122 22.5051 0.00426107C22.4828 2.61165e-05 22.4597 0.00275527 22.4391 0.0120712C22.4184 0.021387 22.4012 0.0368287 22.3898 0.0562577C22.0836 0.589223 21.7424 1.28395 21.5032 1.83281C18.8507 1.44029 16.1541 1.44029 13.5016 1.83281C13.2352 1.22453 12.9348 0.631433 12.6018 0.0562577C12.5905 0.0365895 12.5734 0.0207985 12.5528 0.0109919C12.5323 0.00118533 12.5092 -0.00217059 12.4866 0.00137224C9.98708 0.420234 7.59548 1.15685 5.36284 2.1549C5.34363 2.16288 5.32735 2.17648 5.31617 2.1939C0.77797 8.80179 -0.465952 15.2465 0.145072 21.6103C0.146772 21.6259 0.151657 21.641 0.159428 21.6546C0.1672 21.6683 0.177697 21.6802 0.190279 21.6897C2.83911 23.5998 5.79352 25.0548 8.92982 25.9939C8.95168 26.0006 8.97507 26.0005 8.99692 25.9938C9.01877 25.9871 9.03808 25.9741 9.05231 25.9563C9.7272 25.0624 10.3253 24.114 10.8402 23.1211C10.8473 23.1075 10.8514 23.0926 10.8523 23.0773C10.8531 23.062 10.8506 23.0467 10.8449 23.0325C10.8392 23.0182 10.8305 23.0053 10.8194 22.9947C10.8083 22.9841 10.795 22.976 10.7804 22.9709C9.83834 22.6195 8.92557 22.1955 8.05047 21.7027C8.03474 21.6938 8.02149 21.6812 8.01191 21.666C8.00232 21.6508 7.9967 21.6335 7.99554 21.6156C7.99438 21.5977 7.99773 21.5798 8.00528 21.5635C8.01283 21.5472 8.02435 21.533 8.0388 21.5222C8.22255 21.3879 8.40629 21.2478 8.58129 21.1077C8.59704 21.0951 8.61601 21.087 8.6361 21.0845C8.65618 21.0819 8.67658 21.085 8.69503 21.0932C14.4217 23.641 20.6239 23.641 26.2835 21.0932C26.302 21.0845 26.3226 21.081 26.343 21.0833C26.3633 21.0856 26.3826 21.0936 26.3987 21.1062C26.5737 21.2478 26.756 21.3879 26.9412 21.5222C26.9558 21.5328 26.9675 21.5468 26.9753 21.5629C26.9831 21.5791 26.9867 21.5969 26.9858 21.6148C26.9849 21.6327 26.9796 21.6501 26.9703 21.6654C26.961 21.6808 26.948 21.6936 26.9324 21.7027C26.0604 22.1996 25.1533 22.6199 24.201 22.9694C24.1864 22.9747 24.1731 22.983 24.162 22.9937C24.1508 23.0045 24.1421 23.0175 24.1365 23.0318C24.1308 23.0462 24.1283 23.0616 24.1291 23.077C24.13 23.0924 24.1341 23.1074 24.1413 23.1211C24.6662 24.1133 25.2671 25.0579 25.9277 25.9549C25.9414 25.9733 25.9605 25.9871 25.9825 25.9943C26.0044 26.0015 26.028 26.0019 26.0502 25.9953C29.1918 25.0589 32.1511 23.6032 34.8028 21.6897C34.8158 21.6808 34.8266 21.6692 34.8347 21.6557C34.8427 21.6423 34.8478 21.6273 34.8495 21.6117C35.5786 14.2542 33.6274 7.86152 29.674 2.19678C29.6643 2.17837 29.6483 2.16402 29.6288 2.15634ZM11.6962 17.7351C9.9725 17.7351 8.55066 16.1911 8.55066 14.2975C8.55066 12.4026 9.94479 10.86 11.6962 10.86C13.4607 10.86 14.8694 12.4156 14.8417 14.2975C14.8417 16.1925 13.4476 17.7351 11.6962 17.7351ZM23.3261 17.7351C21.6009 17.7351 20.1805 16.1911 20.1805 14.2975C20.1805 12.4026 21.5732 10.86 23.3261 10.86C25.0906 10.86 26.4993 12.4156 26.4716 14.2975C26.4716 16.1925 25.0921 17.7351 23.3261 17.7351Z" fill="white"/>
</svg>
