<svg width="13" height="13" viewBox="0 0 13 13" fill="none" xmlns="http://www.w3.org/2000/svg">
<path d="M12.2825 0H0.717528C0.527228 0 0.344722 0.0755964 0.210159 0.210159C0.0755964 0.344722 0 0.527228 0 0.717528V12.2827C4.78784e-05 12.4729 0.0756655 12.6554 0.210223 12.7899C0.34478 12.9244 0.527259 13 0.717528 13H6.94362V7.96575H5.24947V6.00383H6.94362V4.55686C6.94362 2.87769 7.96918 1.96354 9.46707 1.96354C10.1846 1.96354 10.8012 2.01681 10.981 2.04082V3.79564L9.94211 3.79618C9.12745 3.79618 8.96982 4.18329 8.96982 4.75132V6.00401H10.9126L10.6596 7.96593H8.96982V13H12.2827C12.4729 13 12.6554 12.9243 12.7899 12.7898C12.9244 12.6552 13 12.4727 13 12.2825V0.717528C13 0.527228 12.9244 0.344722 12.7898 0.210159C12.6553 0.0755964 12.4728 0 12.2825 0Z" fill="#5A5A5A"/>
</svg>
