<svg width="41" height="36" viewBox="0 0 41 36" fill="none" xmlns="http://www.w3.org/2000/svg">
<path d="M37.0931 3.89444C36.117 2.91473 34.958 2.13755 33.6824 1.6073C32.4068 1.07706 31.0395 0.804138 29.6588 0.804138C28.278 0.804138 26.9107 1.07706 25.6351 1.6073C24.3595 2.13755 23.2005 2.91473 22.2244 3.89444L20.1986 5.92675L18.1728 3.89444C16.201 1.91641 13.5268 0.805163 10.7384 0.805163C7.94996 0.805164 5.27574 1.91641 3.30402 3.89444C1.33231 5.87248 0.224609 8.55526 0.224609 11.3526C0.224609 14.15 1.33231 16.8328 3.30402 18.8108L5.32984 20.8431L20.1986 35.7595L35.0673 20.8431L37.0931 18.8108C38.0697 17.8315 38.8444 16.6689 39.373 15.3892C39.9015 14.1095 40.1736 12.7378 40.1736 11.3526C40.1736 9.96742 39.9015 8.59579 39.373 7.31609C38.8444 6.03639 38.0697 4.8737 37.0931 3.89444Z" fill="#FF409D"/>
</svg>
