<svg width="13" height="13" viewBox="0 0 13 13" fill="none" xmlns="http://www.w3.org/2000/svg">
<path d="M2.78571 13H0V3.82349H2.78571V13ZM13 13H10.2143V8.09789C10.2143 6.82052 9.75371 6.18459 8.84093 6.18459C8.11757 6.18459 7.65886 6.54064 7.42857 7.25365V13H4.64286C4.64286 13 4.68 4.74113 4.64286 3.82349H6.84171L7.01164 5.65878H7.06921C7.64029 4.74113 8.55307 4.11897 9.80479 4.11897C10.7566 4.11897 11.5264 4.3805 12.1141 5.03753C12.7056 5.69549 13 6.57826 13 7.818V13Z" fill="#5A5A5A"/>
<path d="M1.52941 3.05882C2.37408 3.05882 3.05882 2.37408 3.05882 1.52941C3.05882 0.684741 2.37408 0 1.52941 0C0.684741 0 0 0.684741 0 1.52941C0 2.37408 0.684741 3.05882 1.52941 3.05882Z" fill="#5A5A5A"/>
</svg>
