<svg width="41" height="44" viewBox="0 0 41 44" fill="none" xmlns="http://www.w3.org/2000/svg">
<path d="M32.4731 28.3741C31.3241 28.3798 30.1911 28.643 29.1576 29.1441C28.1241 29.6453 27.2165 30.3716 26.5019 31.2696L15.2809 24.2682C15.6898 22.9509 15.6898 21.5409 15.2809 20.2236L26.5019 13.2222C27.6408 14.6297 29.2421 15.5895 31.0221 15.9315C32.8021 16.2735 34.6459 15.9757 36.227 15.0908C37.8081 14.2058 39.0243 12.791 39.6602 11.0968C40.2961 9.40259 40.3107 7.53843 39.7014 5.83453C39.0921 4.13063 37.8982 2.69696 36.3311 1.7875C34.7641 0.878043 32.9252 0.551488 31.14 0.865687C29.3548 1.17989 27.7387 2.11456 26.5779 3.50413C25.4171 4.8937 24.7866 6.64848 24.798 8.45762C24.8052 9.14272 24.9086 9.82342 25.105 10.4799L13.884 17.4813C12.8934 16.2366 11.5393 15.3304 10.0096 14.8882C8.47979 14.4459 6.85006 14.4896 5.34628 15.0132C3.8425 15.5368 2.53916 16.5143 1.61692 17.8102C0.694678 19.1062 0.199219 20.6564 0.199219 22.2459C0.199219 23.8355 0.694678 25.3857 1.61692 26.6816C2.53916 27.9776 3.8425 28.9551 5.34628 29.4786C6.85006 30.0022 8.47979 30.0459 10.0096 29.6037C11.5393 29.1614 12.8934 28.2552 13.884 27.0105L25.105 34.0119C24.9086 34.6684 24.8052 35.3491 24.798 36.0342C24.798 37.5493 25.2481 39.0303 26.0915 40.29C26.9348 41.5497 28.1335 42.5315 29.536 43.1113C30.9384 43.6911 32.4816 43.8428 33.9704 43.5472C35.4592 43.2516 36.8268 42.5221 37.9002 41.4508C38.9736 40.3795 39.7045 39.0146 40.0007 37.5286C40.2968 36.0427 40.1448 34.5025 39.5639 33.1028C38.983 31.7031 37.9993 30.5067 36.7371 29.665C35.475 28.8233 33.9911 28.3741 32.4731 28.3741ZM32.4731 3.86152C33.3839 3.86152 34.2742 4.13108 35.0315 4.63611C35.7888 5.14113 36.379 5.85894 36.7276 6.69877C37.0761 7.5386 37.1673 8.46272 36.9896 9.35428C36.812 10.2458 36.3734 11.0648 35.7293 11.7076C35.0853 12.3503 34.2648 12.7881 33.3715 12.9654C32.4782 13.1428 31.5523 13.0517 30.7108 12.7039C29.8693 12.356 29.1501 11.7669 28.6441 11.0111C28.1381 10.2553 27.868 9.36665 27.868 8.45762C27.868 7.23866 28.3532 6.06963 29.2168 5.20769C30.0804 4.34575 31.2517 3.86152 32.4731 3.86152ZM7.91281 26.842C7.00202 26.842 6.11168 26.5725 5.35438 26.0674C4.59708 25.5624 4.00684 24.8446 3.6583 24.0048C3.30975 23.1649 3.21856 22.2408 3.39625 21.3493C3.57393 20.4577 4.01252 19.6388 4.65655 18.996C5.30058 18.3532 6.12112 17.9155 7.01441 17.7381C7.9077 17.5608 8.83362 17.6518 9.67509 17.9997C10.5166 18.3475 11.2358 18.9366 11.7418 19.6925C12.2478 20.4483 12.5179 21.3369 12.5179 22.2459C12.5179 23.4649 12.0327 24.6339 11.1691 25.4959C10.3055 26.3578 9.13415 26.842 7.91281 26.842ZM32.4731 40.6303C31.5623 40.6303 30.6719 40.3608 29.9147 39.8557C29.1574 39.3507 28.5671 38.6329 28.2186 37.7931C27.87 36.9532 27.7788 36.0291 27.9565 35.1376C28.1342 34.246 28.5728 33.4271 29.2168 32.7843C29.8608 32.1415 30.6814 31.7038 31.5747 31.5264C32.468 31.3491 33.3939 31.4401 34.2354 31.788C35.0768 32.1358 35.796 32.7249 36.302 33.4808C36.8081 34.2366 37.0781 35.1252 37.0781 36.0342C37.0781 37.2532 36.593 38.4222 35.7293 39.2842C34.8657 40.1461 33.6944 40.6303 32.4731 40.6303Z" fill="#969696"/>
</svg>
