<svg width="20" height="21" viewBox="0 0 20 21" fill="none" xmlns="http://www.w3.org/2000/svg">
<path fill-rule="evenodd" clip-rule="evenodd" d="M9.61181 0.274475C14.9117 0.274475 19.2226 4.58543 19.2226 9.8853C19.2226 12.3858 18.2631 14.6663 16.6928 16.3779L19.7826 19.4613C20.0718 19.7505 20.0728 20.2183 19.7836 20.5074C19.6395 20.6535 19.449 20.7256 19.2595 20.7256C19.071 20.7256 18.8815 20.6535 18.7365 20.5094L15.6093 17.391C13.9643 18.7084 11.8785 19.4971 9.61181 19.4971C4.31194 19.4971 0 15.1852 0 9.8853C0 4.58543 4.31194 0.274475 9.61181 0.274475ZM9.61181 1.75489C5.12814 1.75489 1.48041 5.40163 1.48041 9.8853C1.48041 14.369 5.12814 18.0167 9.61181 18.0167C14.0945 18.0167 17.7422 14.369 17.7422 9.8853C17.7422 5.40163 14.0945 1.75489 9.61181 1.75489Z" fill="#181818"/>
</svg>
